<svg xmlns="http://www.w3.org/2000/svg" xmlns:xlink="http://www.w3.org/1999/xlink" width="500" zoomAndPan="magnify" viewBox="0 0 375 374.999991" height="500" preserveAspectRatio="xMidYMid meet" version="1.2"><defs><clipPath id="7b18fbfd92"><path d="M 42.539062 37.5 L 116.589844 37.5 L 116.589844 337.5 L 42.539062 337.5 Z M 42.539062 37.5 "/></clipPath><clipPath id="a3c154c086"><path d="M 174.183594 154.199219 L 332.464844 154.199219 L 332.464844 228.253906 L 174.183594 228.253906 Z M 174.183594 154.199219 "/></clipPath><clipPath id="d0b004f48d"><path d="M 174.183594 37.5 L 332.464844 37.5 L 332.464844 111.554688 L 174.183594 111.554688 Z M 174.183594 37.5 "/></clipPath><clipPath id="d535fa34c6"><path d="M 174.183594 270.855469 L 332.464844 270.855469 L 332.464844 337.5 L 174.183594 337.5 Z M 174.183594 270.855469 "/></clipPath></defs><g id="8d794b6193"><g clip-rule="nonzero" clip-path="url(#7b18fbfd92)"><path style=" stroke:none;fill-rule:nonzero;fill:#b23661;fill-opacity:1;" d="M 42.539062 337.5 L 42.539062 37.527344 L 116.589844 37.527344 L 116.589844 337.5 Z M 42.539062 337.5 "/></g><g clip-rule="nonzero" clip-path="url(#a3c154c086)"><path style=" stroke:none;fill-rule:nonzero;fill:#b23661;fill-opacity:1;" d="M 174.183594 154.199219 L 332.414062 154.199219 L 332.414062 228.253906 L 174.183594 228.253906 Z M 174.183594 154.199219 "/></g><g clip-rule="nonzero" clip-path="url(#d0b004f48d)"><path style=" stroke:none;fill-rule:nonzero;fill:#b23661;fill-opacity:1;" d="M 174.183594 37.5 L 332.414062 37.5 L 332.414062 111.554688 L 174.183594 111.554688 Z M 174.183594 37.5 "/></g><g clip-rule="nonzero" clip-path="url(#d535fa34c6)"><path style=" stroke:none;fill-rule:nonzero;fill:#b23661;fill-opacity:1;" d="M 174.183594 270.855469 L 332.46875 270.855469 L 332.46875 337.5 L 174.183594 337.5 Z M 174.183594 270.855469 "/></g></g></svg>